Coordinates
nRows=7
nColumns=24

# SIMM Motion File Header:
name Coordinates
datacolumns 24
datarows 7
otherdata 1
range 0.28466999999999998000 0.29066999999999998000
endheader
time	pelvis_tx	pelvis_ty	pelvis_tz	pelvis_tilt	pelvis_list	pelvis_rotation	hip_flexion_r	hip_adduction_r	hip_rotation_r	knee_angle_r	ankle_angle_r	subtalar_angle_r	mtp_angle_r	hip_flexion_l	hip_adduction_l	hip_rotation_l	knee_angle_l	ankle_angle_l	subtalar_angle_l	mtp_angle_l	lumbar_extension	lumbar_bending	lumbar_rotation
      0.28466999999999998000	      0.95218096619196824000	      0.87575209944697630000	     -0.28254539906751525000	     -4.34584076222223990000	      4.44224134850682170000	      1.90614337232645360000	     31.81985285342190300000	     -9.62123650345241010000	     -9.56349954272667270000	    -24.87971529728584100000	     -2.11905978163091110000	      0.00000000000000396393	     -0.00000000000003659303	    -10.27188015493634100000	      4.44179380500161880000	      2.05956318830095950000	     -6.38220392502412710000	     10.15967201002126800000	      0.00000000000005605599	     -0.00000000000013116135	    -10.41091218093688100000	     -0.30041688114049109000	     -1.12944260227357600000
      0.28566999999999998000	      0.95431940865306442000	      0.87559936292138951000	     -0.28244922138788287000	     -4.32103902338753440000	      4.42145378943177200000	      1.97169263018517580000	     31.76424055415846900000	     -9.59018112086440410000	     -9.60809734964220570000	    -24.46388672946763500000	     -2.22254223128681930000	      0.00000000000000394956	     -0.00000000000003685389	    -10.41851805990103200000	      4.39412698842688610000	      2.08414003439845220000	     -6.43813464699188030000	     10.13967492796020400000	      0.00000000000005670330	     -0.00000000000013267845	    -10.42264010746188100000	     -0.28069325910980281000	     -1.15351941681661210000
      0.28666999999999998000	      0.95646080910761411000	      0.87544713527308671000	     -0.28235196537320700000	     -4.29574110090948570000	      4.40044170182979940000	      2.03747170545828380000	     31.70697613602028800000	     -9.55890348619630890000	     -9.65348993399539520000	    -24.04936591558722000000	     -2.32500181822315580000	      0.00000000000000393768	     -0.00000000000003712260	    -10.56469343046620000000	      4.34592634263523170000	      2.10869900337187180000	     -6.49603748664304530000	     10.11843710291178600000	      0.00000000000005734622	     -0.00000000000013417427	    -10.43429411578643400000	     -0.26104368709521658000	     -1.17676164311173160000
      0.28766999999999998000	      0.95861232480230429000	      0.87529639907351942000	     -0.28225118494337914000	     -4.26910128387823920000	      4.37880426055802640000	      2.10385743965783160000	     31.64469582626702500000	     -9.52696835288222840000	     -9.70131340754221230000	    -23.63989059256976300000	     -2.42412093993537290000	      0.00000000000000394476	     -0.00000000000003741862	    -10.70876179817538800000	      4.29611274490580540000	      2.13294579417396870000	     -6.56092610056559340000	     10.09407926086615400000	      0.00000000000005793480	     -0.00000000000013562731	    -10.44527869009626100000	     -0.24176498521781972000	     -1.19706165779053200000
      0.28866999999999998000	      0.96076528553130036000	      0.87514587593805704000	     -0.28214990102567233000	     -4.24226976762510690000	      4.35707748304770880000	      2.17032983941829950000	     31.58169896056875100000	     -9.49493929119014980000	     -9.74948415097383330000	    -23.23113605396130400000	     -2.52276285232985800000	      0.00000000000000395454	     -0.00000000000003771855	    -10.85252916547657700000	      4.24606872547098300000	      2.15714798809444770000	     -6.62681268224119880000	     10.06927570210663300000	      0.00000000000005851562	     -0.00000000000013707423	    -10.45616763097541500000	     -0.22253926478859284000	     -1.21694135652414360000
      0.28966999999999998000	      0.96292483144303165000	      0.87499611112648867000	     -0.28204662713553796000	     -4.21486108215172630000	      4.33500433710826180000	      2.23726374864109490000	     31.51587935159219700000	     -9.46261774273720850000	     -9.79909251217381440000	    -22.82619592060719800000	     -2.61903679176785430000	      0.00000000000000396263	     -0.00000000000003802987	    -10.99439386175948200000	      4.19504995852949140000	      2.18115446231539290000	     -6.69763948094173060000	     10.04326444532203600000	      0.00000000000005908466	     -0.00000000000013859771	    -10.46626720810395700000	     -0.20356879594128263000	     -1.23504452083828340000
      0.29066999999999998000	      0.96509096253749804000	      0.87484710463881421000	     -0.28194136327297598000	     -4.18687522745809740000	      4.31258482273968370000	      2.30465916732621780000	     31.44723699933736300000	     -9.43000370752340620000	     -9.85013849114215740000	    -22.42507019250744100000	     -2.71294275824936280000	      0.00000000000000396905	     -0.00000000000003835258	    -11.13435588702410300000	      4.14305644408133220000	      2.20496521683680500000	     -6.77340649666718790000	     10.01604549051236300000	      0.00000000000005964192	     -0.00000000000014019775	    -10.47557742148189400000	     -0.18485357867588900000	     -1.25137115073295240000
